<svg preserveAspectRatio="none" class="box" xmlns="http://www.w3.org/2000/svg" width="287" height="397" viewBox="0 0 287 397">
  <g class="card" id="Union_1" data-name="Union 1" fill="#aeded3">
    <path d="M 228.9996185302734 395.9999084472656 L 143.0001068115234 395.9999084472656 L 57.99961090087891 395.9999084472656 C 46.83406066894531 395.9999084472656 37.77756118774414 394.8721923828125 30.3126106262207 392.5523986816406 C 22.99091148376465 390.277099609375 17.2993106842041 386.8815002441406 12.91261100769043 382.1716003417969 C 8.669960975646973 377.6163024902344 5.663661003112793 371.8411560058594 3.72196102142334 364.5162048339844 C 1.890361070632935 357.6065979003906 1.000011086463928 349.2603149414062 1.000011086463928 339.0003051757812 L 1.000011086463928 198.9999084472656 L 1.000011086463928 57.99960327148438 C 1.000011086463928 47.73960494995117 1.890361070632935 39.39330291748047 3.72196102142334 32.48370361328125 C 5.663661003112793 25.15875434875488 8.669960975646973 19.38360404968262 12.91261100769043 14.82830429077148 C 17.2993106842041 10.11840438842773 22.99091148376465 6.722804069519043 30.3126106262207 4.447504043579102 C 37.77756118774414 2.12770414352417 46.83406066894531 1.000004172325134 57.99961090087891 1.000004172325134 L 144.0000152587891 1.000004172325134 L 228.9996185302734 1.000004172325134 C 240.1654052734375 1.000004172325134 249.2220611572266 2.12770414352417 256.6871643066406 4.447504043579102 C 264.0089721679688 6.722804069519043 269.7006530761719 10.11840438842773 274.08740234375 14.82830429077148 C 278.3301086425781 19.38360404968262 281.3364562988281 25.15875434875488 283.2781677246094 32.4837532043457 C 285.1097717285156 39.39330291748047 286.0001220703125 47.73960494995117 286.0001220703125 57.99960327148438 L 286.0001220703125 198 L 286.0001220703125 339.0003051757812 C 286.0001220703125 349.2603149414062 285.1097717285156 357.6065979003906 283.2781677246094 364.5161437988281 C 281.3364562988281 371.8411560058594 278.3301086425781 377.6163024902344 274.08740234375 382.1716003417969 C 269.7006530761719 386.8815002441406 264.0089721679688 390.277099609375 256.6871643066406 392.5523986816406 C 249.2220611572266 394.8721923828125 240.1654052734375 395.9999084472656 228.9996185302734 395.9999084472656 Z" stroke="none"/>
    <path d="M 228.9996185302734 394.9999084472656 C 240.0632629394531 394.9999084472656 249.0228576660156 393.886962890625 256.3904113769531 391.5974426269531 C 263.5414123535156 389.375244140625 269.0908203125 386.0690612792969 273.3556518554688 381.4900512695312 C 277.4835205078125 377.0580444335938 280.4130249023438 371.4220581054688 282.3115539550781 364.2599487304688 C 284.1206665039062 357.4350891113281 285.0001220703125 349.172607421875 285.0001220703125 339.0003051757812 L 285.0001220703125 57.99960327148438 C 285.0001220703125 47.82730484008789 284.1206665039062 39.56480407714844 282.3115539550781 32.73995590209961 C 280.4130249023438 25.57785415649414 277.4835205078125 19.94185447692871 273.3556518554688 15.50985431671143 C 269.0908203125 10.93085384368896 263.5414123535156 7.624654293060303 256.3904113769531 5.402454376220703 C 249.0228576660156 3.112954139709473 240.0632629394531 2.000004291534424 228.9996185302734 2.000004291534424 L 57.99961090087891 2.000004291534424 C 46.93621063232422 2.000004291534424 37.97676086425781 3.112954139709473 30.60936164855957 5.402454376220703 C 23.45846176147461 7.624654293060303 17.90916061401367 10.93085384368896 13.64436149597168 15.50985431671143 C 9.516561508178711 19.94185447692871 6.587110996246338 25.57785415649414 4.688560962677002 32.73995590209961 C 2.879461050033569 39.56480407714844 2.000010967254639 47.82730484008789 2.000010967254639 57.99960327148438 L 2.000010967254639 339.0003051757812 C 2.000010967254639 349.172607421875 2.879461050033569 357.4350891113281 4.688560962677002 364.2599487304688 C 6.587110996246338 371.4220581054688 9.516561508178711 377.0580444335938 13.64436149597168 381.4900512695312 C 17.90916061401367 386.0690612792969 23.45846176147461 389.375244140625 30.60936164855957 391.5974426269531 C 37.97676086425781 393.886962890625 46.93621063232422 394.9999084472656 57.99961090087891 394.9999084472656 L 228.9996185302734 394.9999084472656 M 228.9996185302734 396.9999084472656 L 57.99961090087891 396.9999084472656 C 13.14901065826416 396.9999084472656 1.103515660361154e-05 378.6083984375 1.103515660361154e-05 339.0003051757812 L 1.103515660361154e-05 57.99960327148438 C 1.103515660361154e-05 18.39150428771973 13.14901065826416 4.223632913635811e-06 57.99961090087891 4.223632913635811e-06 L 228.9996185302734 4.223632913635811e-06 C 273.8511047363281 4.223632913635811e-06 287.0001220703125 18.39150428771973 287.0001220703125 57.99960327148438 L 287.0001220703125 339.0003051757812 C 287.0001220703125 378.6083984375 273.8511047363281 396.9999084472656 228.9996185302734 396.9999084472656 Z" stroke="none" fill="rgba(43,104,100,0)"/>
  </g>
</svg>