<svg preserveAspectRatio="none" class="bg-waves" width="1250" height="470" viewBox="0 0 1250 470" fill="none" xmlns="http://www.w3.org/2000/svg">
    <path d="M1250 410.329L1197.92 407.876C1145.83 405.288 1041.67 400.383 937.5 414.143C833.333 428.039 729.167 460.736 625 468.229C520.833 475.722 416.667 458.011 312.5 441.935C208.333 425.723 104.167 411.282 52.0834 403.925L-1.83415e-05 396.705L0 -22.9001L52.0834 -22.9001C104.167 -22.9001 208.333 -22.9001 312.5 -22.9001C416.667 -22.9001 520.833 -22.9001 625 -22.9001C729.167 -22.9001 833.333 -22.9001 937.5 -22.9001C1041.67 -22.9001 1145.83 -22.9001 1197.92 -22.9001L1250 -22.9001L1250 410.329Z" fill="#87D3C1"/>
    <path d="M1250 380.357L1197.92 367.823C1145.83 355.426 1041.67 330.358 937.5 319.323C833.333 308.152 729.167 310.877 625 325.454C520.833 339.895 416.667 366.325 312.5 367.414C208.333 368.504 104.167 344.527 52.0834 332.402L-1.50067e-05 320.413L0 -22.9001L52.0834 -22.9001C104.167 -22.9001 208.333 -22.9001 312.5 -22.9001C416.667 -22.9001 520.833 -22.9001 625 -22.9001C729.167 -22.9001 833.333 -22.9001 937.5 -22.9001C1041.67 -22.9001 1145.83 -22.9001 1197.92 -22.9001L1250 -22.9001L1250 380.357Z" fill="#51BEC5"/>
    <path d="M1250 255.02L1197.92 248.208C1145.83 241.397 1041.67 227.773 937.5 221.643C833.333 215.512 729.167 216.874 625 212.515C520.833 208.291 416.667 198.21 312.5 206.384C208.333 214.558 104.167 240.988 52.0834 254.067L-1.26842e-05 267.281L0 -22.9001L52.0834 -22.9001C104.167 -22.9001 208.333 -22.9001 312.5 -22.9001C416.667 -22.9001 520.833 -22.9001 625 -22.9001C729.167 -22.9001 833.333 -22.9001 937.5 -22.9001C1041.67 -22.9001 1145.83 -22.9001 1197.92 -22.9001L1250 -22.9001L1250 255.02Z" fill="#1CA7CA"/>
    <path d="M1250 107.886L1197.92 114.97C1145.83 121.918 1041.67 136.087 937.5 138.266C833.333 140.582 729.167 131.046 625 117.422C520.833 103.799 416.667 86.0882 312.5 87.7231C208.333 89.2216 104.167 110.202 52.0834 120.556L-6.72919e-06 131.046L0 -22.9001L52.0834 -22.9001C104.167 -22.9001 208.333 -22.9001 312.5 -22.9001C416.667 -22.9001 520.833 -22.9001 625 -22.9001C729.167 -22.9001 833.333 -22.9001 937.5 -22.9001C1041.67 -22.9001 1145.83 -22.9001 1197.92 -22.9001L1250 -22.9001L1250 107.886Z" fill="#248CC7"/>
</svg>